<?xml version="1.0"?>
<svg xmlns="http://www.w3.org/2000/svg" height="512px" viewBox="0 0 512 512" width="512px"><g><path d="m104 344h192a8 8 0 0 0 8-8v-160a8 8 0 0 0 -8-8h-192a8 8 0 0 0 -8 8v160a8 8 0 0 0 8 8zm8-160h176v144h-176z" fill="#547D8F"/><path d="m368 272a48 48 0 1 0 -48-48 48.054 48.054 0 0 0 48 48zm0-80a32 32 0 1 1 -32 32 32.036 32.036 0 0 1 32-32z" fill="#547D8F"/><path d="m328 320h24a8 8 0 0 0 8-8v-24a8 8 0 0 0 -8-8h-24a8 8 0 0 0 -8 8v24a8 8 0 0 0 8 8zm8-24h8v8h-8z" fill="#547D8F"/><path d="m376 280a8 8 0 0 0 -8 8v24a8 8 0 0 0 8 8h31a8 8 0 0 0 8-8v-24a8 8 0 0 0 -8-8zm23 24h-15v-8h15z" fill="#547D8F"/><path d="m320 344h88a8 8 0 0 0 0-16h-88a8 8 0 0 0 0 16z" fill="#547D8F"/><path d="m232 248h-24v-24a8 8 0 0 0 -16 0v24h-24a8 8 0 0 0 0 16h24v24a8 8 0 0 0 16 0v-24h24a8 8 0 0 0 0-16z" fill="#547D8F"/><path d="m144 192h-16a8 8 0 0 0 -8 8v16a8 8 0 0 0 16 0v-8h8a8 8 0 0 0 0-16z" fill="#547D8F"/><path d="m144 304h-8v-8a8 8 0 0 0 -16 0v16a8 8 0 0 0 8 8h16a8 8 0 0 0 0-16z" fill="#547D8F"/><path d="m272 288a8 8 0 0 0 -8 8v8h-8a8 8 0 0 0 0 16h16a8 8 0 0 0 8-8v-16a8 8 0 0 0 -8-8z" fill="#547D8F"/><path d="m272 192h-16a8 8 0 0 0 0 16h8v8a8 8 0 0 0 16 0v-16a8 8 0 0 0 -8-8z" fill="#547D8F"/><path d="m496 8h-480a8 8 0 0 0 -8 8v24a8 8 0 0 0 8 8h8v376a8 8 0 0 0 8 8h200v64a8 8 0 0 0 8 8h32a8 8 0 0 0 8-8v-64h200a8 8 0 0 0 8-8v-376h8a8 8 0 0 0 8-8v-24a8 8 0 0 0 -8-8zm-232 480h-16v-80h16zm-40-96v-16h64v16zm184-264v8h-48v-8zm-32-16v-8h16v8zm44 40a12.01 12.01 0 0 1 12 12v184a12.01 12.01 0 0 1 -12 12h-328a12.01 12.01 0 0 1 -12-12v-184a12.01 12.01 0 0 1 12-12zm52 264h-192v-8h16a8 8 0 0 0 8-8v-24h116a28.031 28.031 0 0 0 28-28v-184a28.043 28.043 0 0 0 -24-27.71v-16.29a8 8 0 0 0 -8-8h-8v-16a8 8 0 0 0 -8-8h-32a8 8 0 0 0 -8 8v16h-8a8 8 0 0 0 -8 8v16h-252a28.031 28.031 0 0 0 -28 28v184a28.031 28.031 0 0 0 28 28h116v24a8 8 0 0 0 8 8h16v8h-192v-368h432zm16-384h-464v-8h464z" fill="#547D8F"/></g></svg>
