<?xml version="1.0"?>
<svg xmlns="http://www.w3.org/2000/svg" id="Capa_1" enable-background="new 0 0 512 512" height="512px" viewBox="0 0 512 512" width="512px"><g><path d="m479.5 0h-387c-4.143 0-7.5 3.358-7.5 7.5v384.5h-52.5c-4.143 0-7.5 3.358-7.5 7.5 0 28.949 23.552 52.5 52.5 52.5h7.5v52.5c0 4.142 3.357 7.5 7.5 7.5h387c4.143 0 7.5-3.358 7.5-7.5v-497c0-4.142-3.357-7.5-7.5-7.5zm-289.5 15h15v52.5c0 4.142 3.357 7.5 7.5 7.5h147c4.143 0 7.5-3.358 7.5-7.5v-52.5h15v52.5c0 12.407-10.094 22.5-22.5 22.5h-147c-12.406 0-22.5-10.093-22.5-22.5zm30 30h132v15h-132zm132-15h-132v-15h132zm-252-15h75v15h-52.5c-4.143 0-7.5 3.358-7.5 7.5v332c0 4.142 3.357 7.5 7.5 7.5s7.5-3.358 7.5-7.5v-324.5h45v22.5c0 20.678 16.822 37.5 37.5 37.5h147c20.678 0 37.5-16.822 37.5-37.5v-22.5h45v354.5c0 20.678-16.822 37.5-37.5 37.5s-37.5-16.822-37.5-37.5c0-4.142-3.357-7.5-7.5-7.5h-259.5zm-59.247 392h311.781c1.677 11.673 7.208 22.118 15.259 30h-290.293c-18.109 0-33.262-12.905-36.747-30zm431.247 90h-372v-45h304.5c28.948 0 52.5-23.551 52.5-52.5v-362c0-4.142-3.357-7.5-7.5-7.5h-52.5v-15h75z" fill="#547D8F"/><path d="m339.387 265.853 41.876-41.246c2.024-1.993 2.748-4.959 1.87-7.661s-3.207-4.675-6.016-5.099l-58.123-8.753-26.286-52.573c-1.271-2.541-3.867-4.146-6.708-4.146s-5.438 1.605-6.708 4.146l-26.286 52.573-58.123 8.753c-2.809.423-5.138 2.397-6.016 5.099s-.154 5.668 1.87 7.661l41.876 41.246-9.635 57.983c-.466 2.802.691 5.627 2.99 7.297 2.297 1.669 5.34 1.897 7.864.589l52.168-27.082 52.167 27.082c1.089.565 2.274.844 3.455.844 1.556 0 3.104-.483 4.409-1.433 2.299-1.669 3.456-4.495 2.99-7.297zm-15.436-1.382 7.814 47.026-42.31-21.964c-1.084-.562-2.27-.843-3.456-.843s-2.372.281-3.456.843l-42.31 21.964 7.814-47.026c.4-2.408-.396-4.86-2.136-6.573l-33.964-33.452 47.141-7.1c2.413-.364 4.499-1.879 5.591-4.063l21.321-42.637 21.319 42.639c1.092 2.184 3.178 3.699 5.591 4.063l47.141 7.1-33.964 33.452c-1.739 1.711-2.536 4.163-2.136 6.571z" fill="#547D8F"/></g></svg>
