<?xml version="1.0"?>
<svg xmlns="http://www.w3.org/2000/svg" id="Capa_1" enable-background="new 0 0 512 512" height="512px" viewBox="0 0 512 512" width="512px"><g id="XMLID_1443_"><g id="XMLID_1219_"><path id="XMLID_1261_" d="m353 0c-87.673 0-159 71.327-159 159 0 21.76 4.28 42.698 12.716 62.392l-98.656 41.825h-70.952c-20.462 0-37.108 16.646-37.108 37.108v60.175c0 20.462 16.646 37.108 37.108 37.108h5.788v47.196c0 37.052 30.145 67.195 67.196 67.195 5.522 0 10-4.478 10-10v-99.29l152.108 64.486c1.254.531 2.58.793 3.902.793 1.936 0 3.86-.562 5.522-1.662 2.797-1.853 4.479-4.983 4.479-8.338v-75.639c24.4-4.69 42.896-26.188 42.896-51.937 0-5.044-.725-9.92-2.05-14.544 8.572 1.413 17.277 2.132 26.051 2.132 25.818 0 51.455-6.332 74.141-18.311 4.884-2.579 6.753-8.628 4.174-13.512-2.579-4.885-8.63-6.753-13.512-4.174-19.819 10.466-42.228 15.997-64.803 15.997-13.871 0-27.531-2.055-40.654-6.063-7.164-6.752-16.2-11.53-26.243-13.46v-75.639c0-3.354-1.682-6.485-4.479-8.338-2.797-1.852-6.336-2.18-9.425-.869l-47.071 19.956c-7.382-17.222-11.128-35.541-11.128-54.587 0-76.645 62.355-139 139-139s139 62.355 139 139c0 22.445-5.472 44.74-15.822 64.472-2.565 4.891-.681 10.936 4.21 13.501 1.482.778 3.071 1.146 4.637 1.146 3.6 0 7.076-1.948 8.864-5.356 11.848-22.587 18.111-48.094 18.111-73.763 0-87.673-71.327-159-159-159zm-333 360.5v-60.175c0-9.434 7.675-17.108 17.108-17.108h62.984v94.392h-62.984c-9.433-.001-17.108-7.675-17.108-17.109zm80.093 130.434c-21.238-4.598-37.196-23.534-37.196-46.129v-47.196h37.196zm208.907-160.522c0 14.654-9.632 27.096-22.896 31.339v-62.676c13.264 4.242 22.896 16.683 22.896 31.337zm-42.896 112.476-146.011-61.901v-101.148l146.011-61.901z" fill="#547D8F"/><path id="XMLID_1274_" d="m320.664 230.327c1.349.617 2.764.909 4.156.909 3.791 0 7.417-2.167 9.099-5.84l58.223-127.2c2.299-5.021.091-10.956-4.931-13.255-5.021-2.298-10.956-.092-13.255 4.931l-58.223 127.2c-2.298 5.022-.09 10.956 4.931 13.255z" fill="#547D8F"/><path id="XMLID_1279_" d="m333.082 115.516c0-20.628-16.026-37.409-35.726-37.409s-35.727 16.781-35.727 37.409 16.027 37.41 35.727 37.41 35.726-16.782 35.726-37.41zm-35.726 17.41c-8.672 0-15.727-7.811-15.727-17.41s7.055-17.409 15.727-17.409c8.671 0 15.726 7.81 15.726 17.409s-7.055 17.41-15.726 17.41z" fill="#547D8F"/><path id="XMLID_1290_" d="m408.774 165.074c-19.699 0-35.726 16.782-35.726 37.41s16.026 37.409 35.726 37.409 35.726-16.781 35.726-37.409-16.026-37.41-35.726-37.41zm0 54.82c-8.671 0-15.726-7.81-15.726-17.409s7.055-17.41 15.726-17.41 15.726 7.811 15.726 17.41-7.055 17.409-15.726 17.409z" fill="#547D8F"/><path id="XMLID_1291_" d="m458.359 254.359c-2.64 0-5.21 1.07-7.069 2.931-1.86 1.859-2.931 4.439-2.931 7.069 0 2.631 1.07 5.21 2.931 7.07 1.859 1.86 4.439 2.93 7.069 2.93 2.631 0 5.2-1.069 7.07-2.93 1.86-1.86 2.93-4.439 2.93-7.07 0-2.63-1.069-5.21-2.93-7.069-1.86-1.86-4.439-2.931-7.07-2.931z" fill="#547D8F"/></g></g></svg>
